#!OML:ASF F:\VICON\USERDATA\INSTALL\rory3\rory3.ASF
:FULLY-SPECIFIED
:DEGREES
2095
root 3.51857 14.2666 -7.32274 -363.678 -45.399 362.014
lowerback 23.1458 -2.46858 -6.61837
upperback -0.257982 -4.69977 3.06947
thorax -12.4912 -1.63894 8.86912
lowerneck -15.5495 0.0102317 1.36753
upperneck 17.5235 -0.0534799 -1.57866
head 7.98591 -0.114496 -0.759199
rclavicle 7.28546e-014 -2.22639e-014
rhumerus 21.5151 7.13085 -52.3414
rradius 122.683
rwrist -23.0333
rhand -2.24968 18.5488
rfingers 7.12502
rthumb 23.4339 -10.0443
lclavicle 7.28546e-014 -2.22639e-014
lhumerus 5.76833 -73.3757 75.6227
lradius 28.6961
lwrist -9.38309
lhand -6.33526 15.0383
lfingers 7.12502
lthumb 19.51 44.0794
rfemur -31.3912 -15.0628 -1.55349
rtibia 58.6686
rfoot -14.1232 -0.776785
rtoes -12.4727
lfemur -37.5716 30.2851 -8.91253
ltibia 68.7944
lfoot -17.695 3.02482
ltoes 17.3642
2096
root 3.58221 14.2954 -7.25003 -363.609 -45.1892 361.784
lowerback 23.2331 -2.3823 -6.55558
upperback -0.320073 -4.56378 3.15598
thorax -12.6363 -1.56366 8.90558
lowerneck -15.5419 0.0741266 1.3991
upperneck 17.6408 0.0421234 -1.65544
head 8.02522 -0.0752449 -0.779795
rclavicle 1.13307e-014 -3.97569e-015
rhumerus 21.4614 7.89806 -52.7455
rradius 122.481
rwrist -21.6432
rhand -2.53091 18.6814
rfingers 7.12502
rthumb 23.1641 -9.94586
lclavicle 1.13307e-014 -3.97569e-015
lhumerus 3.68706 -71.1868 78.2093
lradius 27.6379
lwrist -10.8219
lhand -6.29413 15.0749
lfingers 7.12502
lthumb 19.5496 44.112
rfemur -30.4746 -14.9152 -1.86526
rtibia 57.6464
rfoot -13.7984 -0.870637
rtoes -11.6202
lfemur -37.5293 30.0145 -9.23283
ltibia 68.9157
lfoot -17.9993 3.0641
ltoes 18.2344
2097
root 3.6467 14.2669 -7.22445 -363.042 -44.8238 361.137
lowerback 23.1989 -2.41734 -6.10627
upperback -0.274818 -4.49745 3.04838
thorax -12.6196 -1.56951 8.49213
lowerneck -15.9249 0.063901 1.64608
upperneck 17.8816 -0.090789 -1.38738
head 8.17181 -0.0946946 -0.748686
rclavicle 1.21756e-013 -2.78299e-014
rhumerus 21.4699 8.23409 -53.7841
rradius 122.196
rwrist -20.8834
rhand -2.48468 19.0763
rfingers 7.12502
rthumb 23.2085 -9.5453
lclavicle 1.21756e-013 -2.78299e-014
lhumerus 4.83603 -71.6368 76.4022
lradius 27.779
lwrist -9.85887
lhand -6.1743 15.7334
lfingers 7.12502
lthumb 19.6648 44.7588
rfemur -30.2771 -14.6007 -1.66181
rtibia 57.2672
rfoot -13.9226 -0.736655
rtoes -8.1704
lfemur -38.4288 30.1061 -9.20168
ltibia 69.5182
lfoot -18.084 2.74254
ltoes 18.3588
2098
root 3.70521 14.2837 -7.17216 -363.024 -44.4079 361.113
lowerback 23.1136 -2.39997 -6.17233
upperback -0.239053 -4.50358 2.91081
thorax -12.5357 -1.58028 8.36159
lowerneck -15.615 0.113001 1.98102
upperneck 17.5988 -0.091883 -1.42733
head 8.02205 -0.07566 -0.815008
rclavicle 1.33186e-013 1.51076e-014
rhumerus 21.4533 8.80992 -54.6929
rradius 121.927
rwrist -20.6085
rhand -2.25798 19.0443
rfingers 7.12502
rthumb 23.4259 -9.54974
lclavicle 1.33186e-013 1.51076e-014
lhumerus 5.68271 -72.3253 75.056
lradius 27.8924
lwrist -8.63692
lhand -6.75563 15.8823
lfingers 7.12502
lthumb 19.1058 44.9639
rfemur -29.5026 -14.6838 -2.10556
rtibia 56.4788
rfoot -13.7472 -0.135728
rtoes -5.08147
lfemur -38.6275 29.8614 -9.69699
ltibia 69.636
lfoot -18.3485 2.61095
ltoes 18.7082
2099
root 3.76669 14.2848 -7.11891 -362.777 -44.3836 360.693
lowerback 23.1991 -2.28221 -6.16266
upperback -0.286961 -4.32507 3.11899
thorax -12.6557 -1.48022 8.55477
lowerneck -15.7872 0.168162 1.72598
upperneck 17.8814 0.0421588 -1.42313
head 8.1495 -0.0296887 -0.758155
rclavicle 2.1916e-014 -1.82882e-014
rhumerus 21.5095 9.64734 -54.8388
rradius 121.672
rwrist -19.9185
rhand -3.13334 19.2658
rfingers 7.12502
rthumb 22.586 -9.43291
lclavicle 2.1916e-014 -1.82882e-014
lhumerus 4.40592 -70.6334 76.6302
lradius 27.0956
lwrist -9.48007
lhand -7.00413 15.4858
lfingers 7.12502
lthumb 18.8668 44.5908
rfemur -29.0308 -14.2632 -2.10871
rtibia 55.7266
rfoot -13.6909 0.172076
rtoes -1.87772
lfemur -38.8702 29.9143 -9.77088
ltibia 69.9396
lfoot -18.6548 2.61995
ltoes 18.4939
2100
root 3.82485 14.3006 -7.06399 -362.697 -44.2527 360.627
lowerback 22.9952 -2.10433 -6.22444
upperback -0.173642 -4.1003 3.06449
thorax -12.4505 -1.39254 8.4308
lowerneck -15.4613 0.0599779 1.70666
upperneck 17.357 -0.11825 -1.30512
head 7.91404 -0.0933873 -0.730302
rclavicle 8.40362e-014 -4.05521e-014
rhumerus 21.5136 10.0676 -55.4974
rradius 121.308
rwrist -18.3689
rhand -2.93206 19.6531
rfingers 7.12502
rthumb 22.7792 -9.02202
lclavicle 8.40362e-014 -4.05521e-014
lhumerus 5.35448 -70.2709 75.6759
lradius 26.636
lwrist -9.2407
lhand -7.25625 15.9077
lfingers 7.12502
lthumb 18.6244 45.0361
rfemur -28.5695 -13.9906 -2.36961
rtibia 54.9997
rfoot -13.8533 -0.321274
rtoes -7.04925
lfemur -39.0934 30.0107 -10.1725
ltibia 70.0832
lfoot -18.6862 2.3992
ltoes 19.8992
2101
root 3.88117 14.3048 -7.01104 -362.608 -43.9292 360.408
lowerback 23.0792 -2.0551 -6.18916
upperback -0.214187 -4.0253 3.1061
thorax -12.558 -1.3495 8.4461
lowerneck -15.5985 0.156157 1.89764
upperneck 17.5638 -0.0164061 -1.39711
head 8.0089 -0.0417721 -0.782302
rclavicle 3.1408e-014 1.03368e-014
rhumerus 21.3953 10.6541 -56.0773
rradius 121.008
rwrist -16.8597
rhand -2.98184 19.9887
rfingers 7.12502
rthumb 22.7314 -8.69224
lclavicle 3.1408e-014 1.03368e-014
lhumerus 4.67505 -69.1628 76.2071
lradius 26.3938
lwrist -9.55224
lhand -7.24942 16.2296
lfingers 7.12502
lthumb 18.6309 45.3574
rfemur -27.8142 -13.7896 -2.66025
rtibia 54.2841
rfoot -14.2553 0.858158
rtoes -1.52791
lfemur -39.2541 29.8013 -10.4341
ltibia 70.2781
lfoot -19.0085 2.33001
ltoes 19.8763
